<svg xmlns="http://www.w3.org/2000/svg" viewBox="0 0 206 213" fill="none" stroke="#011223" stroke-width="10" stroke-linecap="round" stroke-linejoin="round">
    <path d="M 147.79 205.14 C 195.57 180.27 197.85 154.38 194.81 121.65 C 181.5 121.65 166.6 116.75 158.63 105.79 L 136.95 105.79 C 128.99 116.75 114.09 121.65 100.78 121.65 C 97.74 154.38 100.02 180.27 147.79 205.14 Z" />
    <path d="M 147.79 178.08 C 169.54 166.76 170.58 154.97 169.2 140.07 C 163.14 140.07 156.35 137.84 152.73 132.85 L 142.86 132.85 C 139.23 137.84 132.45 140.07 126.39 140.07 C 125.01 154.97 126.04 166.76 147.79 178.08 Z" />
    <path d="M 79.51 141.92 L 93.9 141.92 C 96.13 141.92 98.21 141.24 99.93 140.06" />
    <path d="M 20.46 132.86 C 20.36 132.32 20.33 131.77 20.33 131.22 L 20.33 84.77 C 20.33 72.96 29.91 63.36 41.75 63.36 L 83.2 63.36 C 95.03 63.36 104.61 72.96 104.61 84.77 L 104.61 121.51" />
    <path d="M 45.43 132.85 L 45.43 106.44" />
    <path d="M 79.51 106.44 L 79.51 205.14 L 45.43 205.14 L 45.43 169.63" />
    <path d="M 54.63 169.62 L 8 169.62 L 8 132.86 L 54.63 132.86 L 54.63 169.62 Z" />
    <path d="M 80.4 25.93 C 80.4 35.84 72.38 43.87 62.47 43.87 C 52.57 43.87 44.54 35.84 44.54 25.93 C 44.54 16.03 52.57 8 62.47 8 C 72.38 8 80.4 16.03 80.4 25.93 Z" />
</svg>
