<svg xmlns="http://www.w3.org/2000/svg" viewBox="0 0 216 213" fill="none" stroke="#011223" stroke-width="10" stroke-linecap="round" stroke-linejoin="round">
    <path d="M 56.98 205.35 L 8 205.35 L 8 8 C 24.33 13.92 40.66 13.92 56.98 8 L 56.98 205.35 Z" />
    <path d="M 132.49 205.35 L 83.51 205.35 L 83.51 8 C 99.84 13.92 116.16 13.92 132.49 8 L 132.49 205.35 Z" />
    <path d="M 208 205.35 L 159.02 205.35 L 159.02 8 C 175.34 13.92 191.67 13.92 208 8 L 208 205.35 Z" />
    <path d="M 32.49 181.77 L 32.49 170.4" />
    <path d="M 108 181.77 L 108 170.4" />
    <path d="M 183.51 181.77 L 183.51 170.4" />
    <path d="M 34.45 38.63 C 34.45 39.71 33.57 40.59 32.49 40.59 C 31.41 40.59 30.54 39.71 30.54 38.63 C 30.54 37.56 31.41 36.68 32.49 36.68 C 33.57 36.68 34.45 37.56 34.45 38.63 Z" />
    <path d="M 34.45 66.87 C 34.45 67.95 33.57 68.82 32.49 68.82 C 31.41 68.82 30.54 67.95 30.54 66.87 C 30.54 65.79 31.41 64.92 32.49 64.92 C 33.57 64.92 34.45 65.79 34.45 66.87 Z" />
    <path d="M 109.95 38.63 C 109.95 39.71 109.08 40.59 108 40.59 C 106.92 40.59 106.05 39.71 106.05 38.63 C 106.05 37.56 106.92 36.68 108 36.68 C 109.08 36.68 109.95 37.56 109.95 38.63 Z" />
    <path d="M 109.95 66.87 C 109.95 67.95 109.08 68.82 108 68.82 C 106.92 68.82 106.05 67.95 106.05 66.87 C 106.05 65.79 106.92 64.92 108 64.92 C 109.08 64.92 109.95 65.79 109.95 66.87 Z" />
    <path d="M 185.46 38.63 C 185.46 39.71 184.59 40.59 183.51 40.59 C 182.43 40.59 181.55 39.71 181.55 38.63 C 181.55 37.56 182.43 36.68 183.51 36.68 C 184.59 36.68 185.46 37.56 185.46 38.63 Z" />
    <path d="M 185.46 66.87 C 185.46 67.95 184.59 68.82 183.51 68.82 C 182.43 68.82 181.55 67.95 181.55 66.87 C 181.55 65.79 182.43 64.92 183.51 64.92 C 184.59 64.92 185.46 65.79 185.46 66.87 Z" />
</svg>
