<svg xmlns="http://www.w3.org/2000/svg" viewBox="0 0 217 193" fill="none" stroke="#011223" stroke-width="10" stroke-linecap="round" stroke-linejoin="round">
    <path d="M 169.48 48.71 L 125.54 92.66 C 123.6 94.59 120.46 94.59 118.52 92.66 L 100.29 74.42 C 98.35 72.49 98.35 69.35 100.29 67.41 L 144.24 23.46 C 146.17 21.53 149.31 21.53 151.25 23.46 L 169.48 41.7 C 171.42 43.63 171.42 46.77 169.48 48.71 Z" />
    <path d="M 154.76 63.44 L 203.99 107.5 C 209.14 112.11 209.36 120.11 204.47 124.99 L 204.47 124.99 C 199.58 129.88 191.59 129.66 186.98 124.51 L 142.91 75.28" />
    <path d="M 135.77 147.62 L 76.1 147.62 L 76.1 130.38 C 76.1 124.55 80.83 119.82 86.66 119.82 L 125.21 119.82 C 131.04 119.82 135.77 124.55 135.77 130.38 L 135.77 147.62 Z" />
    <path d="M 164.99 99.95 L 164.99 184.87 L 36.14 184.87 L 36.14 91.09" />
    <path d="M 8 85.03 L 100.58 8 L 132.84 34.86" />
</svg>
